# xmcd CD database file
#
# Track frame offsets:
#	150
#	30944
#	56751
#	83926
#	113626
#	135251
#	136885
#	157283
#	158106
#	181203
#	205868
#	239265
#
# Disc length: 3758 seconds
#
# Revision: 0
# Processed by: cddbd v1.5.1PL0 Copyright (c) Steve Scherf et al.
# Submitted via: CDex 1.51
#
DISCID=970eac0c
DTITLE=Various Artist - Mark Hummel's Blue Harp Meltdown - Vol. 2 - East Meets West - (Disk 1)
DYEAR=2003
DGENRE=Blues
TTITLE0=Telephone Blues - RJ Mischo
TTITLE1=Moe's Blues - RJ Mischo
TTITLE2=You Can't Hurt Me No More - Gary Smith
TTITLE3=Story Telling Woman - Gary Smith
TTITLE4=It Ain't Alright - Gary Smith
TTITLE5=Intro - Paris Slim
TTITLE6=All These Blues - Paris Slim
TTITLE7=Intro - Mark Hummel
TTITLE8=Seven Nights To Rock - Mark Hummel
TTITLE9=I'm Gone - Mark Hummel
TTITLE10=Love Shock - Mark Hummel
TTITLE11=Nothing But The Devil - Paul and Annie
EXTD=YEAR: 2003
EXTT0=
EXTT1=
EXTT2=
EXTT3=
EXTT4=
EXTT5=
EXTT6=
EXTT7=
EXTT8=
EXTT9=
EXTT10=
EXTT11=
PLAYORDER=
